<svg xmlns="http://www.w3.org/2000/svg" version="1.1" xmlns:xlink="http://www.w3.org/1999/xlink" xmlns:svgjs="http://svgjs.dev/svgjs" width="80" height="80"><svg width="80" height="80" viewBox="0 0 80 80" fill="none" xmlns="http://www.w3.org/2000/svg">
<path d="M76 6H4V13H76V6Z" fill="#F15737"></path>
<path d="M76 19H4V26H76V19Z" fill="#F15737"></path>
<path d="M76 32H4V39H76V32Z" fill="#F15737"></path>
<path d="M69.4 75.3731L69.4 32L66.1 32L62.8 32L62.8 75.3731L69.4 75.3731Z" fill="#F15737"></path>
<path d="M56.2 75.3731L56.2 32L52.9 32L49.6 32L49.6 75.3731L56.2 75.3731Z" fill="#F15737"></path>
<path d="M43 75.3731L43 32L39.7 32L36.4 32L36.4 75.3731L43 75.3731Z" fill="#F15737"></path>
<path fill-rule="evenodd" clip-rule="evenodd" d="M22.8586 75.3731H43L43 75.3731L22.8586 75.3731ZM13.5248 75.3731L37.8979 51L40.2313 53.3335L42.5648 55.6669L22.8586 75.3731H13.5248ZM4.63016 75.3731H4.00001V66.6694L34.6694 36L37.0028 38.3335L39.3363 40.6669L4.63016 75.3731ZM4 47.9331V32H4.00001V47.9331L4 47.9331ZM4.00001 57.2669L23.6 37.6669L21.2666 35.3335L18.9331 33L4.00001 47.9331V53.6865V57.2669Z" fill="#F15737"></path>
</svg><style>@media (prefers-color-scheme: light) { :root { filter: none; } }
@media (prefers-color-scheme: dark) { :root { filter: none; } }
</style></svg>