<svg
  width="400"
  viewBox="0 0 286 80"
  fill="none"
  xmlns="http://www.w3.org/2000/svg"
>
    <path d="M76.0001 5.99994H4.00006V12.9999H76.0001V5.99994Z" fill="#F15737"/>
    <path d="M76.0001 19H4.00006V26H76.0001V19Z" fill="#F15737"/>
    <path d="M76.0001 31.9999H4.00006V38.9999H76.0001V31.9999Z" fill="#F15737"/>
    <path d="M69.4 75.3729L69.4 31.9999L66.1 31.9999L62.8 31.9999L62.8 75.3729L69.4 75.3729Z" fill="#F15737"/>
    <path d="M56.2 75.3729L56.2 31.9999L52.9 31.9999L49.6 31.9999L49.6 75.3729L56.2 75.3729Z" fill="#F15737"/>
    <path d="M43 75.3729L43 31.9999L39.7 31.9999L36.4 31.9999L36.4 75.3729L43 75.3729Z" fill="#F15737"/>
    <path fillRule="evenodd" clipRule="evenodd" d="M42.9999 75.3731H22.8586L42.5646 55.667L40.2312 53.3335L37.8977 51.0001L13.5247 75.3731H22.8586L42.9999 75.3731V75.3731ZM4.63001 75.3731H3.99995V66.6693L34.6692 36.0001L37.0027 38.3335L39.3361 40.667L4.63001 75.3731ZM3.99988 66.6694L3.99988 57.2673L3.99995 57.2672L3.99995 66.6693L3.99988 66.6694ZM3.99995 47.9334L18.9331 33.0002L21.2666 35.3336L23.6 37.6671L3.99995 57.2672V53.6866V47.9334ZM3.99988 47.9334L3.99995 47.9334V32L3.99988 32L3.99988 47.9334Z" fill="#F15737"/>
    <path d="M113.154 24.5059V64.75H108.267V24.5059H113.154ZM95 23.8711V19.2373H126.738V23.8711H95Z" fill="currentColor"/>
    <path d="M133.213 36.8521V32.25H154.922V36.8521H133.213ZM133.213 31.6152V16H138.101V31.6152H133.213ZM155.588 64.75V32.25L160.476 36.8521V64.75H155.588ZM138.101 37.5186V64.75H133.213V37.5186H138.101Z" fill="currentColor"/>
    <path d="M171.172 32.25V64.75H166.284V32.25H171.172ZM171.807 36.8521L176.694 32.25H187.993V36.8521H171.807Z" fill="currentColor"/>
    <path d="M193.833 36.8521L198.721 32.25H215.479V36.8521H193.833ZM221.001 60.1479L216.018 64.75H199.355V60.1479H221.001ZM216.145 59.4814V32.25L221.001 37.1377V59.4814H216.145ZM198.721 49.23V64.75L193.833 59.8623V49.23H198.721ZM193.833 48.5635L198.721 43.9614H215.479V48.5635H193.833Z" fill="currentColor"/>
    <path d="M227.476 36.8521L232.363 32.25H249.121V36.8521H227.476ZM249.788 32.25V16H254.644V32.25H249.788ZM249.788 59.5449V32.25H254.644V59.5449H249.788ZM254.644 60.1479L249.661 64.75H232.998V60.1479H254.644ZM232.363 37.5186V64.75L227.476 59.8623V37.5186H232.363Z" fill="currentColor"/>
    <path d="M284.668 32.25V36.8521H266.641V32.25H284.668ZM266.006 32.25V47.2622L261.118 45.2627V36.8521L266.006 32.25ZM262.419 64.75V60.1479H280.447V64.75H262.419ZM281.082 64.75V54.2764L285.969 56.3711V60.1479L281.082 64.75ZM285.969 50.7852V55.7046L266.641 47.3892V42.4697L285.969 50.7852Z" fill="currentColor"/>
</svg>